#!OML:ASF E:\emotionWalksFemale\Project 1\Capture day 1\Session 1\Female1.ASF
:FULLY-SPECIFIED
:DEGREES
406
root 9.53804 15.5641 0.465063 -369.891 -86.6184 9.11606
lowerback 7.45741 0.862201 0.257033
upperback -4.22195 1.14908 -0.16159
thorax -8.64405 0.529207 -0.484042
lowerneck -6.82961 -4.75784 -8.89534
upperneck 12.4362 -6.32385 6.26591
head 5.34469 -3.15652 2.96911
rclavicle -1.12438e-014 -3.47873e-016
rhumerus -48.4498 13.8526 -96.6274
rradius 38.1999
rwrist 19.4775
rhand 2.89214 -52.9737
rfingers 7.12502
rthumb 28.3575 -440.846
lclavicle -1.12438e-014 -3.47873e-016
lhumerus -39.4465 8.38359 81.1875
lradius 37.8047
lwrist -8.54809
lhand -4.69903 -28.1183
lfingers 7.12502
lthumb 21.0826 0.755639
rfemur 4.89744 22.0076 31.1606
rtibia 13.9624
rfoot -17.4678 -29.6712
rtoes 3.56829
lfemur -2.87425 -22.3206 -26.3314
ltibia 24.5222
lfoot -22.236 23.3451
ltoes -15.5611
407
root 9.54224 15.5608 0.457043 -370.168 -86.6163 9.31642
lowerback 7.51848 0.837272 0.161162
upperback -4.24903 1.10748 -0.127473
thorax -8.71224 0.515218 -0.389289
lowerneck -6.88628 -4.75663 -8.7799
upperneck 12.5953 -6.31205 6.06108
head 5.39283 -3.1588 2.885
rclavicle -2.54693e-016 -4.87022e-015
rhumerus -48.6021 13.6776 -96.5667
rradius 38.456
rwrist 19.3066
rhand 2.75422 -53.2844
rfingers 7.12502
rthumb 28.2257 -441.179
lclavicle -2.54693e-016 -4.87022e-015
lhumerus -39.7096 8.20417 81.2354
lradius 37.8641
lwrist -8.54867
lhand -4.56313 -28.2149
lfingers 7.12502
lthumb 21.2131 0.644361
rfemur 5.03543 22.3512 31.3052
rtibia 13.9461
rfoot -17.4712 -30.011
rtoes 3.55678
lfemur -2.8059 -22.3297 -26.3568
ltibia 24.5337
lfoot -21.8086 23.7554
ltoes -18.1334
408
root 9.54478 15.5616 0.451637 -370.279 -86.6293 9.4528
lowerback 7.48717 0.828631 0.205208
upperback -4.30194 1.09703 -0.16174
thorax -8.74987 0.505711 -0.44872
lowerneck -6.78103 -4.74303 -8.90649
upperneck 12.5459 -6.31336 6.25547
head 5.36959 -3.15536 2.96913
rclavicle -5.03174e-016 -2.68359e-015
rhumerus -48.7081 13.2412 -96.4916
rradius 38.5925
rwrist 18.9145
rhand 2.44416 -52.8129
rfingers 7.12502
rthumb 27.9293 -440.756
lclavicle -5.03174e-016 -2.68359e-015
lhumerus -39.9177 7.88916 81.2373
lradius 37.8962
lwrist -8.42178
lhand -4.90282 -28.2234
lfingers 7.12502
lthumb 20.8868 0.672177
rfemur 5.00934 22.524 31.3427
rtibia 13.9506
rfoot -17.7016 -30.1657
rtoes 3.8956
lfemur -2.83816 -22.3486 -26.3225
ltibia 24.5114
lfoot -21.7215 23.8506
ltoes -18.4786
409
root 9.54935 15.5633 0.445451 -370.473 -86.6835 9.72121
lowerback 7.39129 0.805575 0.21722
upperback -4.34415 1.065 -0.1757
thorax -8.73912 0.488487 -0.46425
lowerneck -6.57378 -4.69906 -9.1411
upperneck 12.3457 -6.27987 6.58509
head 5.28699 -3.13242 3.11882
rclavicle -3.22404e-015 0
rhumerus -48.7203 13.0117 -96.5064
rradius 38.6089
rwrist 18.2408
rhand 2.38184 -51.8808
rfingers 7.12502
rthumb 27.8697 -439.833
lclavicle -3.22404e-015 0
lhumerus -40.1506 7.78227 81.1677
lradius 38.009
lwrist -8.34029
lhand -4.98102 -28.1897
lfingers 7.12502
lthumb 20.8116 0.714178
rfemur 5.05117 22.5772 31.3192
rtibia 13.6534
rfoot -17.6103 -30.205
rtoes 3.88228
lfemur -3.00288 -22.0558 -26.2184
ltibia 24.5807
lfoot -21.6294 23.7153
ltoes -19.1816
410
root 9.55702 15.5653 0.439596 -371.222 -86.7552 10.5363
lowerback 7.32546 0.757897 0.135823
upperback -4.38065 0.992828 -0.151156
thorax -8.74252 0.458573 -0.381153
lowerneck -6.49034 -4.63906 -9.30481
upperneck 12.2913 -6.20533 6.73817
head 5.25959 -3.09573 3.20144
rclavicle -1.28589e-014 1.04362e-015
rhumerus -48.5981 12.8599 -96.4883
rradius 38.5476
rwrist 18.0815
rhand 2.448 -51.5398
rfingers 7.12502
rthumb 27.933 -439.482
lclavicle -1.28589e-014 1.04362e-015
lhumerus -40.4372 7.60574 81.1593
lradius 38.1802
lwrist -8.14226
lhand -4.68785 -28.1133
lfingers 7.12502
lthumb 21.0933 0.759354
rfemur 5.08206 22.5937 31.245
rtibia 13.3958
rfoot -17.9488 -29.9457
rtoes 5.72277
lfemur -3.12213 -21.7849 -26.1589
ltibia 24.6269
lfoot -21.4841 23.5424
ltoes -19.8263
411
root 9.56224 15.5872 0.437252 -372.187 -86.8796 11.5018
lowerback 7.32258 0.713016 0.0961003
upperback -4.38756 0.928214 -0.147513
thorax -8.74943 0.429467 -0.345463
lowerneck -6.63877 -4.57362 -9.2039
upperneck 12.3984 -6.10631 6.63929
head 5.3036 -3.04652 3.15835
rclavicle 2.8625e-014 -1.2424e-015
rhumerus -48.5032 12.7332 -96.4573
rradius 38.6083
rwrist 18.2963
rhand 2.43622 -51.8856
rfingers 7.12502
rthumb 27.9217 -439.83
lclavicle 2.8625e-014 -1.2424e-015
lhumerus -40.6537 7.3157 81.2035
lradius 38.2591
lwrist -7.73827
lhand -4.54269 -27.9929
lfingers 7.12502
lthumb 21.2327 0.864136
rfemur 5.07232 22.5886 31.1598
rtibia 13.3381
rfoot -18.0712 -29.691
rtoes 6.50191
lfemur -2.86135 -22.7855 -26.1628
ltibia 24.6335
lfoot -25.0981 20.8717
ltoes 2.8602
412
root 9.5701 15.5848 0.432906 -373.226 -86.9845 12.567
lowerback 7.34118 0.719014 0.095417
upperback -4.42387 0.932509 -0.18473
thorax -8.79923 0.429805 -0.385692
lowerneck -6.79394 -4.55868 -8.90297
upperneck 12.5297 -6.0794 6.38389
head 5.35154 -3.03319 3.02753
rclavicle -1.50952e-015 9.93923e-016
rhumerus -48.6203 12.7169 -96.5627
rradius 38.8074
rwrist 17.8513
rhand 1.96816 -52.6576
rfingers 7.12502
rthumb 27.4741 -440.674
lclavicle -1.50952e-015 9.93923e-016
lhumerus -40.8485 7.2776 81.214
lradius 38.2099
lwrist -7.74994
lhand -4.72651 -27.9425
lfingers 7.12502
lthumb 21.0562 0.934347
rfemur 5.02367 22.8587 31.1613
rtibia 13.3249
rfoot -17.729 -29.9477
rtoes 5.40165
lfemur -2.93171 -22.6168 -26.1644
ltibia 24.6253
lfoot -24.7924 21.1285
ltoes 1.24
